<svg xmlns="http://www.w3.org/2000/svg" viewBox="0 0 8000 1728" preserveAspectRatio="xMidYMid meet">
  <g transform="translate(0,1728) scale(1,-1)" fill="#00044E" stroke="none">
    <path d="M0 1457 l0 -271 323 0 c341 -1 374 -1 383 -5 2 -1 9 -3 15 -5 11 -4 19 -8 28 -17 3 -3 7 -7 9 -8 5 -2 6 -5 10 -20 2 -6 4 -14 5 -17 4 -14 4 -22 4 -119 0 -80 -1 -92 -2 -94 -2 -2 -2 -2 -94 -2 -104 -1 -94 -1 -95 8 -2 7 -1 50 0 55 2 6 0 16 -6 27 -2 5 -4 9 -5 10 -2 1 -12 4 -25 6 -9 1 -25 1 -113 1 -57 0 -105 0 -108 -1 -2 0 -5 -2 -6 -3 -2 -2 -2 -5 -2 -163 0 -159 0 -161 2 -163 1 -1 3 -3 6 -3 2 -1 83 -1 183 -1 98 0 179 0 180 -1 3 -2 3 -7 3 -80 0 -67 0 -76 -1 -80 -1 -3 -2 -6 -1 -7 0 -4 -2 -9 -6 -10 -2 -2 -6 -2 -18 -2 -13 0 -154 0 -310 0 -27 0 -34 0 -37 -3 -1 -1 -1 -64 -1 -232 0 -231 0 -231 -3 -234 -2 -2 -2 -2 -101 -2 -55 0 -101 0 -102 0 -2 1 -3 2 -5 5 -1 3 -2 17 -2 489 0 485 0 485 -3 488 -1 1 -3 3 -5 4 -4 2 -6 2 -17 0 -4 -1 -6 -1 -10 1 -4 1 -5 1 -9 0 -3 -2 -10 -2 -34 -2 l-30 0 0 -503 0 -503 790 0 c514 0 789 0 789 1 0 2 -7 5 -14 6 -4 1 -12 3 -18 3 -20 3 -23 4 -31 6 -4 1 -10 3 -12 4 -4 3 -14 5 -23 6 -3 1 -6 2 -7 3 -2 1 -5 3 -8 4 -3 1 -7 3 -9 4 -3 2 -9 4 -14 6 -5 2 -12 6 -16 8 -4 3 -8 5 -11 5 -3 1 -5 2 -6 4 -2 2 -5 4 -7 5 -5 2 -19 12 -25 18 -2 1 -6 4 -9 6 -3 1 -8 5 -10 8 -3 3 -7 5 -9 6 -2 1 -4 3 -6 5 -1 2 -4 5 -6 7 -3 1 -7 4 -9 7 -3 2 -6 6 -8 7 -2 2 -5 6 -7 9 -2 4 -5 8 -9 11 -5 4 -8 8 -11 13 -2 5 -5 9 -8 11 -4 3 -5 5 -7 10 -1 3 -2 6 -4 7 -5 4 -6 5 -8 11 -2 3 -5 8 -7 11 -6 7 -9 13 -11 18 -2 9 -7 21 -10 24 -4 4 -5 6 -5 11 0 5 -4 16 -9 28 -4 6 -6 12 -7 18 -1 5 -2 10 -2 11 -1 1 -2 5 -2 9 -1 4 -2 10 -3 15 -1 4 -3 14 -4 21 -1 8 -3 15 -4 17 -1 3 -3 54 -2 63 1 3 1 18 2 33 1 17 2 29 3 31 0 2 1 7 2 12 1 5 2 14 4 20 2 7 3 16 4 21 1 7 1 10 3 12 2 2 3 5 4 7 2 7 6 20 8 25 5 10 8 18 9 23 1 8 8 21 12 26 2 2 3 6 4 8 2 6 7 14 12 21 3 3 5 8 6 10 1 2 2 5 4 6 1 1 2 4 3 6 1 1 3 5 6 7 2 1 6 6 9 10 9 15 34 41 41 43 3 2 5 3 6 5 1 2 4 5 6 6 2 2 6 5 9 7 3 3 7 6 9 7 2 1 6 4 8 6 2 2 7 5 10 7 4 2 8 5 11 7 2 2 6 5 8 6 2 1 5 3 6 5 2 3 3 3 20 8 2 1 5 2 8 3 7 5 14 8 23 10 7 2 10 3 11 5 2 2 4 3 5 3 19 4 25 5 29 7 7 4 20 7 37 9 7 0 20 2 28 3 19 3 43 3 72 2 25 -1 27 -1 54 -6 8 -1 18 -2 22 -3 4 -1 9 -2 12 -3 2 -2 5 -3 6 -3 3 0 25 -7 32 -10 2 -1 8 -3 12 -4 6 -1 9 -3 11 -4 1 -2 7 -5 12 -7 5 -2 11 -5 13 -6 2 -2 7 -5 11 -7 4 -3 10 -8 14 -10 3 -3 7 -5 7 -5 2 0 10 -6 18 -14 4 -4 10 -9 13 -11 2 -2 6 -5 8 -7 1 -2 4 -4 7 -6 3 -2 5 -5 7 -9 2 -5 4 -8 9 -12 5 -4 7 -7 9 -11 1 -4 5 -9 7 -11 4 -5 8 -12 8 -14 0 -1 2 -4 4 -6 3 -2 5 -5 6 -9 1 -3 4 -9 6 -13 3 -4 6 -10 8 -15 2 -4 4 -11 6 -15 3 -5 4 -12 5 -17 2 -8 3 -12 7 -20 5 -10 5 -10 7 -23 1 -10 1 -14 3 -17 3 -5 4 -10 6 -36 1 -7 2 -15 2 -19 1 -5 1 -22 2 -39 0 -26 0 -31 -1 -34 -2 -3 -2 -8 -2 -16 0 -15 -2 -23 -7 -27 -3 -3 -3 -3 -264 -3 -143 0 -269 0 -279 0 -21 0 -24 -1 -28 -6 -2 -2 -2 -5 0 -17 1 -4 2 -9 2 -13 1 -4 3 -12 6 -18 2 -6 5 -14 5 -17 1 -3 2 -8 3 -10 6 -16 9 -22 12 -27 2 -3 5 -8 8 -12 2 -3 6 -8 8 -11 2 -2 6 -8 10 -13 4 -7 7 -10 9 -12 2 -1 7 -5 11 -10 6 -6 9 -8 15 -11 4 -2 11 -7 14 -10 7 -5 13 -9 23 -13 3 -1 8 -3 10 -5 5 -3 12 -6 43 -16 9 -3 13 -4 31 -6 12 -1 28 -1 40 -1 35 0 73 4 81 9 5 3 15 7 22 8 12 3 18 5 23 8 2 2 5 3 6 3 1 0 6 2 11 4 5 3 12 6 16 8 4 2 10 5 14 8 3 3 8 6 11 7 2 1 6 3 7 4 2 2 6 4 9 6 3 1 7 5 11 9 5 5 6 6 13 8 4 2 9 3 10 3 3 0 12 -10 17 -17 2 -4 5 -10 7 -12 1 -2 5 -8 7 -13 4 -7 8 -14 17 -28 1 -1 2 -3 2 -4 0 -3 4 -9 9 -14 4 -5 8 -10 10 -17 1 -3 3 -7 6 -9 7 -8 7 -8 8 -14 2 -8 1 -11 -5 -14 -2 -2 -6 -5 -9 -8 -6 -5 -24 -17 -30 -20 -2 -2 -6 -4 -7 -5 -1 -2 -5 -4 -7 -6 -3 -1 -6 -3 -7 -5 -2 -3 -5 -4 -12 -7 -5 -2 -9 -4 -10 -4 0 -2 -8 -5 -13 -7 -3 0 -8 -3 -11 -6 -9 -5 -18 -9 -27 -11 -8 -2 -17 -4 -20 -7 -5 -3 -17 -8 -27 -9 -2 -1 -5 -2 -6 -3 -2 -2 -7 -3 -14 -4 -6 -1 -15 -3 -19 -4 -4 -1 -11 -2 -15 -3 -5 -1 -9 -1 -11 -2 -2 0 -5 -3 -5 -5 0 -1 69 -1 512 -1 450 0 511 0 511 1 0 3 -5 5 -16 7 -6 1 -12 2 -12 3 -1 0 -25 5 -27 5 -2 0 -4 1 -7 3 -2 1 -5 3 -7 4 -4 1 -28 11 -32 14 -5 3 -16 8 -19 9 -2 1 -5 3 -7 4 -1 2 -7 6 -12 9 -5 3 -13 8 -17 13 -4 3 -9 7 -10 8 -2 1 -8 7 -14 13 -6 5 -14 13 -18 17 -4 4 -8 9 -9 12 -1 2 -3 5 -5 6 -2 1 -4 4 -6 7 -1 2 -5 8 -8 12 -6 8 -10 14 -12 19 -1 2 -4 6 -6 9 -5 5 -12 18 -18 34 -2 6 -5 12 -7 14 -2 4 -8 21 -9 27 -1 2 -2 4 -4 6 -3 4 -4 4 -5 17 -1 5 -2 12 -3 14 -2 5 -6 20 -6 23 0 1 -1 5 -2 8 -1 5 -2 13 -5 47 -1 7 -2 15 -3 19 -3 9 -4 50 -2 80 1 13 2 28 2 33 0 5 1 11 1 13 1 3 2 9 3 15 1 5 2 14 4 20 1 5 3 16 5 25 2 15 7 34 10 37 2 2 3 7 6 19 1 9 3 12 5 15 1 1 4 5 4 8 1 3 4 9 6 12 3 4 6 10 7 14 1 3 4 8 5 10 2 3 6 10 9 16 4 9 7 13 12 19 4 3 8 10 11 15 2 4 8 12 12 17 12 13 15 16 17 19 0 1 3 3 5 5 2 1 6 4 8 7 4 6 14 13 27 21 4 3 9 7 12 9 3 3 5 5 6 5 1 0 3 2 6 4 4 4 9 7 17 9 6 1 14 5 19 9 4 3 15 8 17 8 2 0 5 2 8 4 4 2 6 3 13 4 8 1 16 3 20 5 6 4 25 8 51 11 6 1 17 2 24 2 11 2 19 2 49 0 37 -1 50 -2 64 -7 9 -4 20 -7 27 -7 11 -2 21 -5 28 -9 3 -2 8 -5 12 -7 4 -1 10 -4 15 -7 4 -2 9 -4 9 -4 4 0 8 -3 10 -6 1 -3 4 -5 8 -7 3 -2 8 -6 12 -9 3 -3 8 -8 10 -10 3 -2 6 -5 7 -7 1 -2 5 -6 8 -10 6 -7 8 -7 12 -4 3 4 4 10 1 20 -2 7 -2 11 -2 18 1 12 1 127 0 149 0 10 -1 20 -2 23 -2 10 -10 17 -20 19 -4 1 -17 1 -38 1 -35 1 -37 1 -39 5 -1 4 -1 116 0 140 1 29 1 29 26 30 39 1 147 0 175 -1 26 -1 31 -1 35 -3 3 -1 9 -3 15 -5 11 -4 19 -8 27 -16 3 -4 8 -7 10 -9 5 -2 7 -5 9 -15 1 -4 3 -12 5 -18 2 -7 4 -14 5 -17 0 -3 0 -202 0 -442 0 -417 1 -438 2 -443 2 -6 12 -17 18 -20 6 -3 19 -4 42 -4 34 0 36 0 38 -2 2 -2 2 -2 2 -85 0 -83 0 -83 -3 -85 -2 -2 -7 -2 -81 -2 -73 0 -114 1 -142 3 -10 1 -11 1 -18 5 -3 2 -9 6 -13 7 -5 2 -8 5 -16 13 -5 5 -11 12 -13 16 -5 6 -5 7 -6 18 -2 8 -2 17 -2 29 0 18 0 20 -5 20 -2 0 -3 -2 -4 -4 -2 -2 -4 -5 -5 -6 -3 -1 -7 -6 -16 -19 -4 -5 -7 -8 -26 -25 -6 -6 -13 -11 -14 -11 -1 -1 -3 -3 -4 -4 -1 -3 -3 -4 -7 -5 -3 -1 -7 -4 -11 -7 -6 -6 -8 -7 -19 -11 -4 -1 -9 -4 -11 -6 -3 -3 -7 -5 -10 -6 -2 -1 -4 -2 -5 -3 -1 -1 -5 -2 -9 -3 -12 -2 -29 -6 -32 -7 -1 -1 -6 -3 -10 -4 -9 -3 -12 -4 -12 -7 0 -1 103 -1 864 -1 690 0 863 0 863 1 0 4 -4 6 -13 7 -4 1 -11 2 -15 3 -15 4 -21 5 -26 6 -4 0 -7 1 -9 3 -3 2 -20 10 -27 12 -5 2 -10 5 -18 13 -3 2 -8 5 -11 7 -6 2 -7 4 -9 7 -1 2 -3 4 -5 5 -2 1 -9 6 -15 14 -10 9 -12 13 -15 19 -2 4 -6 10 -8 13 -3 3 -6 7 -8 10 -1 3 -4 7 -6 9 -1 2 -3 6 -4 8 0 2 -2 6 -2 10 -1 4 -3 9 -5 12 -4 7 -7 14 -9 23 0 4 -2 8 -3 10 0 1 -2 7 -3 13 -1 6 -2 14 -3 17 -1 5 -5 28 -6 41 -2 21 -3 73 -3 230 0 165 0 165 -2 170 -3 6 -8 11 -14 14 -8 4 -21 5 -53 5 -33 0 -35 0 -39 -5 -2 -2 -10 -22 -11 -27 -2 -8 -9 -22 -13 -28 -2 -3 -5 -7 -6 -11 -2 -7 -7 -14 -11 -19 -1 -2 -3 -5 -3 -8 -2 -3 -3 -6 -5 -7 -2 -1 -4 -4 -5 -6 -1 -2 -3 -5 -5 -7 -2 -3 -5 -7 -7 -10 -2 -3 -7 -9 -11 -13 -5 -5 -12 -13 -17 -18 -6 -7 -10 -10 -14 -12 -3 -1 -6 -3 -7 -5 -3 -4 -8 -9 -10 -9 -1 0 -4 -2 -6 -4 -10 -7 -15 -11 -20 -13 -3 -2 -9 -5 -12 -8 -4 -3 -10 -6 -12 -7 -3 -1 -6 -3 -6 -3 -1 0 -4 -2 -7 -3 -4 -1 -9 -4 -13 -6 -4 -2 -10 -5 -14 -5 -4 -1 -9 -3 -11 -4 -8 -4 -21 -8 -33 -10 -7 -2 -15 -3 -18 -4 -3 -1 -11 -2 -16 -3 -6 -1 -13 -2 -15 -2 -4 -1 -45 -1 -128 -2 -68 0 -124 -1 -126 -1 -1 -1 -2 -2 -3 -5 -1 -2 -1 -64 -1 -197 0 -106 0 -194 -1 -196 0 -1 -1 -2 -3 -3 -2 -1 -30 -1 -103 -1 -100 1 -100 1 -102 3 -1 1 -2 4 -3 7 -1 4 -1 143 -1 487 0 481 0 481 -2 485 -3 6 -6 7 -12 7 -16 -2 -37 -3 -60 -3 -25 0 -27 0 -29 2 -2 2 -2 2 -3 82 0 44 0 82 1 86 0 4 1 7 2 8 2 2 7 2 256 2 246 -1 311 -2 326 -4 3 0 10 -2 15 -2 23 -4 27 -5 30 -5 1 0 5 -1 9 -3 3 -2 9 -4 16 -5 15 -3 18 -4 26 -9 5 -3 10 -5 15 -6 9 -1 16 -5 23 -11 3 -2 7 -5 10 -6 4 -2 8 -4 23 -15 3 -3 7 -5 8 -5 1 0 4 -2 7 -5 3 -3 7 -6 9 -7 4 -3 37 -36 41 -42 2 -3 6 -7 9 -10 3 -3 8 -10 11 -15 3 -5 7 -10 8 -11 2 -1 4 -4 5 -8 3 -7 6 -12 9 -17 2 -3 4 -8 5 -11 1 -4 4 -9 5 -12 2 -2 4 -7 5 -10 1 -4 3 -7 4 -8 0 -1 2 -6 3 -10 0 -5 3 -15 5 -21 2 -6 5 -16 6 -21 1 -6 2 -11 3 -11 0 -1 1 -8 1 -15 2 -18 3 -19 12 -22 7 -3 7 -3 104 -3 53 0 99 0 101 -1 10 -1 34 -6 37 -8 8 -4 15 -8 18 -11 1 -1 4 -3 5 -4 2 -1 4 -5 6 -8 1 -3 4 -8 5 -10 7 -11 10 -18 12 -28 0 -6 2 -13 3 -16 1 -5 1 -37 1 -226 0 -192 0 -220 1 -225 1 -2 2 -7 2 -9 0 -9 2 -19 5 -31 2 -6 4 -13 5 -16 1 -6 6 -16 9 -19 1 -2 4 -6 6 -10 5 -9 9 -13 15 -17 2 -1 7 -4 11 -7 6 -6 15 -10 19 -10 1 0 4 -2 6 -3 4 -4 5 -4 35 -6 13 -1 22 -1 38 0 22 1 23 2 50 9 6 2 12 4 14 4 5 1 11 4 16 8 2 1 8 5 13 7 4 3 10 7 12 8 2 2 6 5 9 7 3 3 6 5 6 5 0 1 3 3 6 5 10 7 18 14 19 18 1 2 4 6 7 9 3 3 7 9 9 14 3 4 7 11 10 15 3 5 6 10 6 11 1 3 2 5 4 7 3 2 4 5 5 8 1 6 5 15 9 23 3 6 8 23 8 28 0 1 1 4 2 6 1 4 6 29 8 48 0 7 1 13 2 15 0 1 1 92 1 202 0 169 1 201 2 203 2 5 8 6 19 6 5 -1 48 -1 95 -1 85 0 85 0 88 -2 2 -2 2 -2 2 -307 0 -167 0 -308 0 -313 0 -6 1 -11 2 -16 2 -7 3 -9 9 -15 4 -4 9 -8 10 -8 1 -1 18 -2 39 -2 22 -1 37 -1 38 -2 1 -1 2 -2 3 -3 1 -3 1 -152 0 -158 -2 -8 -3 -8 -13 -9 -15 -1 -193 -1 -197 0 -2 1 -8 2 -14 2 -14 2 -15 3 -26 9 -5 4 -11 6 -15 8 -4 0 -7 2 -8 2 -3 3 -17 26 -20 34 -6 13 -6 18 -6 55 0 32 0 33 -2 35 -2 3 -5 2 -6 -2 -1 -1 -2 -3 -4 -5 -5 -5 -13 -17 -15 -22 -1 -5 -3 -7 -5 -9 -2 -2 -5 -5 -6 -7 -1 -2 -5 -6 -9 -10 -4 -4 -8 -9 -11 -11 -2 -2 -8 -9 -13 -13 -6 -5 -13 -12 -17 -16 -4 -4 -8 -7 -10 -7 -2 -1 -4 -3 -6 -5 -2 -2 -5 -4 -8 -5 -3 -1 -8 -5 -11 -8 -5 -4 -8 -5 -15 -7 -4 -2 -10 -5 -13 -6 -9 -7 -20 -12 -28 -13 -9 -1 -14 -2 -23 -7 -8 -3 -13 -5 -22 -6 -6 0 -10 -2 -10 -5 0 -2 68 -2 610 -2 336 0 610 0 610 1 0 0 -1 2 -2 3 -1 2 -4 3 -21 5 -6 1 -13 2 -15 3 -3 1 -9 1 -14 2 -6 1 -11 2 -15 4 -2 1 -6 2 -7 2 -4 0 -9 2 -21 7 -7 4 -12 5 -19 6 -7 2 -11 3 -14 5 -3 2 -6 3 -6 3 0 0 -3 2 -6 4 -7 4 -13 7 -21 10 -5 1 -9 4 -11 6 -2 2 -7 4 -10 5 -4 1 -8 4 -11 7 -3 2 -6 4 -6 4 -1 0 -4 2 -7 5 -3 3 -8 7 -11 9 -2 1 -7 5 -11 7 -4 3 -8 6 -10 6 -1 1 -4 4 -6 6 -2 3 -5 6 -8 7 -2 1 -5 4 -6 6 -1 1 -4 4 -6 5 -2 1 -5 4 -6 5 -1 2 -3 5 -5 7 -7 8 -7 11 -4 16 1 1 4 6 7 9 2 4 6 8 8 11 2 2 5 6 6 9 1 3 2 6 4 7 2 1 5 6 7 10 3 4 7 11 10 14 3 3 7 9 9 12 2 4 6 9 8 12 6 6 13 15 18 24 8 12 10 15 14 16 3 0 4 -1 12 -9 5 -5 12 -10 15 -12 2 -2 6 -6 8 -8 4 -5 10 -9 15 -11 3 -1 5 -3 7 -5 1 -2 5 -5 9 -7 3 -2 7 -5 9 -7 3 -2 6 -5 9 -6 5 -2 17 -9 19 -11 2 -2 8 -6 10 -6 1 0 4 -2 6 -3 3 -2 7 -4 11 -5 3 -1 8 -3 10 -5 3 -1 7 -4 10 -5 5 -2 21 -7 29 -8 2 -1 5 -2 7 -3 9 -4 63 -8 83 -6 18 2 41 7 45 10 2 1 5 2 7 3 5 1 10 3 16 9 3 3 8 7 10 8 3 2 5 5 7 9 2 4 4 8 5 10 5 7 6 13 7 26 1 19 -1 26 -9 35 -3 2 -6 7 -7 10 -3 4 -4 5 -8 7 -3 2 -7 5 -10 8 -5 5 -34 21 -44 24 -3 1 -7 4 -10 6 -7 4 -16 8 -18 8 -2 0 -6 2 -9 3 -7 4 -26 11 -50 21 -6 2 -12 5 -14 6 -2 2 -7 4 -11 5 -4 0 -11 3 -18 7 -6 3 -13 6 -17 7 -4 0 -9 1 -10 2 -1 0 -4 2 -6 4 -3 2 -7 5 -10 6 -3 1 -8 4 -13 6 -4 2 -10 5 -13 5 -3 1 -7 3 -8 5 -5 4 -13 9 -17 10 -2 1 -5 2 -6 4 -2 2 -6 4 -9 6 -4 1 -9 5 -11 7 -3 3 -8 6 -11 8 -4 2 -8 5 -11 8 -4 4 -6 6 -12 9 -6 3 -8 4 -9 7 -2 3 -10 12 -23 24 -4 5 -9 11 -10 13 -4 8 -8 15 -10 18 -4 4 -6 9 -10 19 -1 4 -3 9 -5 11 -4 5 -6 10 -6 13 0 2 -1 5 -2 8 -1 2 -2 10 -3 17 -1 6 -2 16 -2 21 -1 5 -1 16 -1 25 0 14 0 17 3 31 2 8 3 18 4 22 0 5 1 8 3 10 1 2 3 7 5 11 4 14 9 24 14 31 1 1 4 7 7 12 4 8 4 9 8 11 3 1 6 3 7 5 4 7 7 11 12 15 3 2 7 5 8 6 1 2 3 5 6 7 2 1 7 5 10 8 4 3 10 7 16 10 5 3 10 6 11 7 2 3 5 4 12 6 3 1 6 2 8 5 2 2 5 4 9 5 11 3 19 5 24 8 8 4 13 6 22 8 4 0 8 2 10 3 2 1 5 2 11 3 4 0 11 2 15 2 4 1 13 3 21 3 7 1 15 3 19 4 5 1 12 1 63 1 53 0 58 0 62 -1 2 -1 9 -3 15 -4 6 0 14 -2 18 -2 4 -1 11 -2 18 -3 8 -1 11 -2 14 -4 2 -1 8 -3 14 -4 5 -2 15 -5 21 -7 7 -3 15 -6 18 -7 5 -1 7 -2 10 -5 3 -3 5 -4 11 -5 6 -2 9 -3 12 -5 2 -2 7 -6 12 -9 4 -3 10 -7 13 -10 2 -3 7 -6 10 -7 4 -3 5 -4 7 -8 1 -2 4 -6 6 -8 2 -3 5 -7 6 -10 1 -2 4 -6 6 -8 4 -3 4 -4 6 -13 1 -5 3 -12 4 -16 2 -3 4 -10 5 -16 2 -11 2 -14 2 -46 0 -32 0 -35 -1 -37 -2 -3 -2 -4 -1 -8 1 -7 0 -10 -4 -13 -2 -1 -7 -2 -79 -2 -76 0 -76 0 -84 3 -5 1 -9 3 -9 4 -3 4 -4 11 -4 27 -1 25 -6 36 -20 42 -4 2 -9 5 -11 6 -2 2 -6 4 -8 5 -3 1 -5 2 -6 3 -4 3 -4 3 -20 7 -15 3 -15 3 -44 3 -28 0 -31 0 -58 -5 -1 0 -4 -1 -6 -3 -3 -2 -6 -3 -9 -3 -10 -2 -13 -3 -19 -9 -4 -3 -8 -6 -9 -7 -8 -5 -11 -9 -15 -15 -1 -4 -3 -8 -3 -9 0 -1 -2 -5 -4 -9 -3 -7 -3 -10 -3 -15 0 -7 0 -8 4 -14 2 -4 5 -10 6 -14 1 -6 2 -7 9 -15 5 -4 11 -10 15 -12 3 -2 7 -6 9 -8 2 -2 6 -4 10 -5 4 -1 7 -2 8 -4 2 -2 14 -9 29 -14 6 -3 13 -6 16 -8 3 -3 7 -4 10 -5 7 0 8 -1 11 -4 2 -1 5 -2 8 -3 5 -1 9 -2 25 -9 10 -4 17 -7 24 -8 2 -1 4 -2 6 -4 3 -2 5 -3 10 -3 9 -1 15 -3 23 -8 7 -5 17 -8 24 -9 3 -1 6 -2 8 -5 4 -3 14 -8 23 -11 6 -1 10 -3 20 -10 3 -3 8 -6 12 -7 4 -1 8 -3 9 -4 1 -1 6 -4 11 -7 5 -3 9 -6 10 -7 2 -1 6 -4 9 -7 4 -2 11 -7 14 -11 4 -3 9 -7 12 -9 4 -2 6 -4 7 -6 1 -2 4 -6 7 -8 3 -3 6 -7 8 -9 3 -7 6 -9 11 -10 3 -2 4 -3 6 -7 0 -3 4 -10 7 -15 8 -15 16 -32 16 -37 0 -2 1 -4 3 -6 3 -4 4 -6 7 -46 1 -10 0 -34 -2 -56 -1 -17 -2 -20 -5 -23 -1 -2 -3 -7 -3 -10 -1 -3 -3 -8 -4 -10 -1 -2 -3 -8 -5 -12 -2 -4 -5 -12 -8 -18 -3 -6 -6 -12 -6 -12 0 -1 -2 -3 -5 -4 -4 -3 -5 -4 -8 -10 -4 -8 -6 -10 -12 -14 -3 -2 -8 -9 -8 -12 0 -1 -6 -7 -7 -7 -2 0 -11 -7 -16 -12 -5 -5 -8 -7 -12 -8 -3 -1 -6 -4 -9 -6 -2 -2 -6 -6 -10 -7 -4 -2 -8 -4 -9 -6 -2 -2 -7 -4 -11 -6 -12 -4 -21 -8 -32 -13 -6 -3 -12 -6 -15 -7 -3 -1 -6 -2 -7 -2 0 -1 -6 -2 -13 -3 -6 -1 -15 -3 -19 -4 -5 -1 -13 -3 -18 -3 -10 -2 -15 -4 -15 -7 0 -1 41 -1 338 -1 207 0 338 0 338 1 0 3 -6 6 -19 7 -5 1 -12 2 -16 3 -4 0 -8 1 -9 1 -4 0 -18 4 -21 6 -5 2 -16 5 -22 6 -6 1 -15 4 -31 11 -4 2 -10 5 -13 6 -3 1 -8 4 -11 5 -2 2 -7 4 -11 6 -4 1 -8 4 -11 6 -2 1 -6 4 -9 5 -4 1 -8 3 -9 5 -2 1 -8 5 -12 8 -5 3 -12 8 -16 11 -4 3 -8 6 -10 7 -2 1 -4 3 -6 6 -2 3 -6 6 -10 8 -4 2 -7 5 -9 9 -5 7 -7 9 -13 12 -3 1 -6 3 -7 4 -6 10 -11 17 -16 20 -3 3 -6 6 -8 9 -1 3 -5 8 -8 12 -3 4 -5 8 -6 9 0 2 -2 5 -5 8 -3 3 -6 6 -7 10 -1 3 -4 7 -7 11 -2 3 -5 7 -6 9 -1 2 -4 10 -8 17 -3 7 -6 14 -6 15 0 0 -2 3 -3 5 -4 4 -6 8 -8 19 -1 5 -4 12 -6 17 -1 4 -4 12 -5 16 -1 5 -3 10 -4 12 -1 3 -2 6 -2 9 0 3 -1 10 -2 16 -7 31 -10 83 -7 135 2 30 3 40 10 63 1 4 3 12 3 16 2 12 4 21 7 28 2 4 4 11 5 16 1 6 3 11 7 18 3 4 5 9 5 9 0 1 1 6 3 11 2 7 4 11 7 15 2 3 6 9 9 14 2 5 6 11 8 15 3 3 6 7 7 9 6 12 21 33 25 37 3 2 7 6 9 9 2 3 6 8 9 10 2 2 6 5 7 7 12 13 18 18 24 21 4 3 8 5 9 7 1 2 4 5 7 7 6 3 15 9 16 11 1 0 5 3 10 6 11 6 18 10 25 16 2 2 7 5 10 6 3 0 8 3 12 5 3 1 8 4 11 5 2 0 10 4 16 7 9 4 13 5 20 6 11 1 21 4 35 8 6 2 14 4 17 5 2 0 8 1 12 2 3 0 15 2 26 3 17 2 24 2 54 2 32 0 41 -1 51 -3 2 0 8 -1 13 -2 5 -1 13 -2 19 -3 5 -1 13 -2 18 -3 5 -1 9 -2 11 -3 1 -1 6 -3 11 -4 5 -1 14 -5 21 -8 11 -5 15 -7 26 -10 2 -1 5 -2 6 -3 2 -3 5 -5 10 -5 3 -1 6 -2 9 -6 3 -2 6 -5 8 -6 5 -2 9 -5 15 -11 5 -5 15 -10 18 -10 0 0 3 -2 4 -5 3 -4 6 -7 9 -9 4 -3 7 -6 9 -9 2 -4 4 -6 7 -8 5 -2 6 -3 8 -7 2 -3 5 -8 8 -11 3 -3 7 -8 10 -12 2 -4 6 -9 8 -11 2 -3 5 -8 7 -12 2 -4 5 -9 6 -11 2 -2 4 -5 4 -8 1 -3 4 -7 6 -10 1 -3 4 -8 5 -10 0 -3 3 -9 6 -14 4 -8 10 -22 11 -27 0 -1 1 -5 1 -8 1 -4 3 -11 5 -17 3 -6 5 -14 6 -18 0 -4 2 -11 3 -17 0 -7 2 -17 4 -23 4 -18 5 -45 5 -77 -1 -16 -1 -34 -2 -40 -1 -7 -1 -16 -1 -21 0 -8 -1 -8 -3 -10 -3 -1 -36 -2 -288 -2 -279 0 -285 0 -286 -2 -4 -3 -4 -9 -2 -14 1 -3 3 -10 4 -19 2 -16 3 -19 8 -28 1 -4 4 -11 5 -16 2 -7 3 -11 7 -16 2 -3 5 -8 6 -11 1 -2 4 -6 5 -8 2 -2 5 -6 7 -9 2 -4 5 -8 8 -11 2 -2 5 -6 6 -8 1 -2 4 -5 6 -7 3 -1 5 -4 6 -7 2 -4 4 -6 7 -7 3 -1 8 -6 12 -10 5 -6 9 -9 15 -12 5 -2 11 -6 14 -8 3 -2 7 -4 9 -5 2 -1 6 -3 9 -5 3 -2 9 -4 17 -7 15 -3 18 -5 27 -9 3 -2 8 -3 10 -4 2 0 7 -1 10 -2 6 -1 46 -3 56 -3 7 1 37 4 58 6 9 1 14 2 16 4 4 2 11 4 26 7 4 1 11 4 16 6 4 2 10 5 13 6 14 4 18 6 26 11 5 3 12 7 15 9 4 2 10 6 14 9 4 3 9 6 11 7 3 1 5 2 6 3 1 1 3 3 6 4 3 1 6 3 7 5 4 4 13 9 17 9 6 0 11 -5 14 -14 3 -10 5 -12 11 -18 5 -5 7 -7 8 -11 0 -2 3 -7 5 -10 3 -5 6 -10 11 -20 1 -2 5 -7 7 -12 3 -5 7 -12 9 -15 2 -4 6 -10 8 -12 3 -3 6 -7 7 -8 2 -5 4 -14 3 -16 0 -2 -4 -5 -8 -8 -4 -2 -10 -7 -13 -10 -3 -3 -8 -7 -10 -8 -2 -2 -8 -6 -13 -10 -6 -5 -10 -7 -14 -8 -4 -2 -7 -4 -12 -8 -5 -4 -9 -6 -13 -8 -4 -1 -10 -4 -13 -6 -4 -2 -9 -5 -11 -6 -3 -1 -5 -2 -6 -3 -3 -2 -5 -3 -11 -5 -2 -1 -8 -4 -13 -6 -23 -9 -43 -16 -49 -16 -5 0 -17 -3 -28 -8 -6 -2 -13 -4 -17 -4 -4 -1 -10 -2 -14 -3 -4 -1 -9 -2 -11 -3 -3 -1 -5 -2 -5 -3 -1 -1 81 -1 553 -1 l554 0 0 864 0 864 -335 0 c-336 0 -336 0 -335 -3 2 -5 9 -10 16 -12 3 -1 9 -3 11 -4 10 -5 23 -11 28 -13 3 -1 6 -3 8 -4 2 -1 3 -2 4 -2 0 0 3 -2 6 -5 4 -3 8 -5 12 -6 6 -2 12 -5 21 -11 2 -2 7 -5 12 -7 4 -2 9 -5 11 -8 3 -3 18 -11 21 -11 2 0 16 -10 20 -13 1 -2 5 -4 9 -6 3 -2 7 -4 9 -5 11 -10 22 -17 27 -19 4 -1 5 -2 8 -6 2 -3 4 -6 8 -8 2 -1 7 -4 10 -7 5 -4 15 -11 17 -11 0 0 4 -3 8 -7 4 -4 8 -8 11 -9 5 -2 9 -6 9 -8 0 -2 4 -6 7 -7 2 0 8 -4 16 -11 7 -7 15 -14 19 -16 3 -2 7 -6 9 -8 1 -1 4 -4 6 -5 2 -1 5 -4 7 -6 1 -3 7 -7 11 -11 9 -7 13 -11 31 -29 6 -7 13 -13 15 -15 3 -2 6 -5 7 -6 4 -7 14 -19 18 -21 3 -1 5 -3 6 -6 1 -2 5 -7 8 -10 3 -3 7 -7 8 -9 1 -2 6 -8 12 -14 5 -7 11 -13 12 -15 2 -6 3 -6 7 -10 3 -1 6 -5 7 -7 1 -3 5 -8 9 -12 6 -5 9 -9 11 -14 2 -5 5 -10 8 -13 3 -3 7 -8 10 -10 2 -3 5 -6 7 -8 3 -1 4 -3 5 -8 1 -4 3 -7 7 -11 3 -4 6 -8 8 -10 4 -8 10 -15 13 -18 1 -2 4 -6 5 -8 1 -2 4 -7 7 -9 3 -3 5 -7 6 -9 2 -7 5 -12 11 -18 3 -4 5 -8 6 -11 1 -2 3 -6 5 -9 5 -6 9 -13 15 -26 2 -5 5 -11 7 -13 12 -23 14 -29 16 -33 1 -3 3 -7 4 -9 2 -3 3 -6 3 -10 0 -7 1 -9 7 -16 3 -3 5 -6 5 -6 0 -3 -8 -8 -17 -10 -17 -5 -31 -9 -37 -11 -10 -2 -17 -4 -26 -6 -4 -2 -12 -4 -16 -5 -13 -3 -27 -7 -30 -8 -1 0 -5 -1 -9 -2 -10 -2 -12 -1 -16 8 -2 4 -4 8 -4 9 0 1 -6 13 -13 27 -10 20 -14 27 -16 29 -3 2 -5 4 -6 10 0 2 -2 7 -5 11 -3 4 -7 9 -8 12 -1 3 -4 8 -7 12 -3 3 -7 9 -8 13 -2 3 -4 7 -6 8 -2 1 -5 6 -8 12 -3 6 -6 11 -9 15 -3 3 -7 8 -10 11 -2 4 -5 9 -7 12 -3 2 -7 8 -9 12 -3 4 -7 10 -10 14 -3 3 -7 7 -8 10 -2 2 -5 6 -7 8 -3 3 -7 7 -9 10 -2 3 -6 8 -9 10 -3 3 -5 7 -6 9 -1 2 -3 4 -5 6 -2 1 -4 2 -4 3 0 1 -3 4 -6 8 -4 4 -8 8 -9 11 -2 2 -6 6 -9 8 -3 3 -7 7 -9 10 -1 3 -5 7 -7 8 -2 2 -6 6 -9 8 -3 3 -11 12 -19 20 -9 7 -20 18 -26 24 -6 6 -13 13 -16 15 -3 2 -7 6 -9 7 -1 2 -4 4 -5 5 -2 1 -5 3 -8 5 -2 2 -6 6 -9 8 -4 3 -8 7 -11 9 -2 3 -7 7 -10 9 -4 3 -9 7 -13 10 -3 3 -9 7 -12 10 -3 2 -9 6 -13 9 -4 3 -10 8 -14 11 -5 2 -11 7 -13 9 -3 2 -8 6 -11 8 -4 2 -8 4 -9 6 -1 1 -6 4 -10 6 -4 2 -9 6 -11 7 -2 2 -7 5 -11 7 -4 2 -10 6 -12 8 -3 2 -7 4 -10 5 -7 2 -9 3 -11 6 -1 2 -3 4 -6 5 -2 1 -7 3 -9 4 -3 2 -9 5 -13 7 -10 4 -14 7 -21 11 -4 1 -9 3 -12 4 -16 3 -18 16 -7 41 1 3 3 9 3 14 4 20 6 29 8 33 1 2 3 7 3 12 1 6 2 11 6 19 4 12 6 20 8 30 l0 6 -3660 0 -3660 0 0 -271z m7255 -37 c2 -1 6 -4 8 -6 3 -2 8 -5 12 -7 4 -2 10 -5 14 -8 4 -3 9 -5 12 -6 6 -2 8 -3 15 -9 3 -3 9 -7 13 -9 5 -2 11 -6 15 -9 4 -3 9 -6 11 -7 2 0 5 -2 6 -3 1 -2 4 -4 7 -5 2 -1 7 -4 11 -8 3 -3 11 -8 16 -12 5 -3 10 -7 11 -9 1 -1 4 -4 8 -6 4 -2 8 -5 9 -7 1 -1 5 -4 8 -6 3 -2 8 -7 12 -10 5 -6 9 -9 17 -13 1 -2 5 -5 8 -9 3 -5 6 -7 11 -10 4 -2 7 -5 9 -8 2 -2 4 -4 5 -5 1 -1 4 -4 7 -8 3 -4 8 -8 11 -10 7 -5 19 -18 23 -24 2 -4 5 -7 9 -10 5 -3 8 -7 10 -10 2 -4 6 -10 11 -14 4 -4 9 -10 10 -12 2 -2 5 -7 8 -9 2 -3 5 -7 6 -9 1 -2 3 -5 5 -6 3 -3 14 -17 14 -18 0 -1 3 -4 7 -8 3 -4 7 -10 9 -12 1 -2 4 -6 6 -8 2 -3 5 -7 7 -11 2 -4 5 -9 7 -11 5 -5 9 -11 11 -17 1 -2 3 -7 6 -9 3 -4 6 -8 7 -13 2 -4 4 -8 5 -9 2 -1 4 -6 6 -10 3 -11 4 -14 9 -19 7 -8 9 -14 4 -20 -3 -4 -11 -8 -18 -9 -12 -2 -18 -3 -30 -7 -6 -1 -14 -3 -18 -4 -4 0 -8 -2 -10 -3 -2 -1 -6 -3 -9 -3 -4 -1 -12 -3 -19 -4 -17 -5 -29 -7 -31 -6 -4 1 -13 11 -16 17 -2 4 -4 7 -6 9 -2 1 -3 4 -5 8 -1 5 -3 8 -7 13 -3 3 -7 9 -9 13 -2 3 -5 8 -7 11 -1 2 -4 7 -6 10 -2 4 -4 6 -7 8 -3 1 -5 5 -5 8 0 0 -2 3 -4 6 -3 2 -7 7 -9 11 -2 3 -6 8 -8 10 -3 2 -7 7 -9 10 -2 3 -8 10 -12 15 -5 6 -9 11 -9 12 0 0 -2 3 -5 6 -3 3 -6 7 -7 8 -2 1 -5 5 -8 7 -4 3 -15 14 -26 24 -10 11 -21 21 -23 23 -3 1 -8 6 -12 9 -5 4 -12 10 -17 14 -5 4 -10 8 -10 9 -1 2 -5 5 -9 7 -3 2 -8 6 -9 7 -1 2 -5 4 -8 6 -3 1 -5 3 -7 5 -1 2 -3 4 -7 6 -3 1 -8 4 -11 7 -3 4 -8 7 -13 9 -4 2 -10 6 -13 9 -6 5 -11 8 -13 8 -1 0 -3 2 -6 3 -2 2 -6 5 -9 6 -6 2 -16 11 -17 15 -1 3 3 22 6 36 2 5 3 12 4 15 0 3 1 7 2 8 1 2 3 7 3 12 1 4 3 13 5 18 2 5 4 14 5 20 6 25 11 32 23 27z m-5046 -236 c28 -1 28 -1 37 -5 5 -2 12 -5 16 -8 3 -2 7 -4 7 -4 1 0 4 -1 6 -3 5 -3 15 -16 17 -20 0 -1 2 -6 5 -11 5 -8 6 -9 9 -33 2 -15 2 -18 2 -448 0 -434 0 -434 4 -442 2 -4 5 -9 8 -12 4 -4 4 -4 14 -5 6 0 23 0 38 -1 15 0 29 0 30 0 1 -1 2 -2 3 -3 0 -1 1 -37 1 -83 0 -78 0 -81 -1 -83 -3 -3 -8 -4 -13 -3 -2 0 -46 0 -97 0 -51 0 -99 0 -106 1 -13 1 -14 1 -24 5 -5 3 -13 5 -16 6 -8 1 -15 6 -19 12 -1 2 -5 6 -9 9 -7 6 -9 9 -17 39 -1 2 -1 10 -2 18 -1 8 -1 182 -1 437 0 282 0 426 -1 432 -2 18 -10 28 -26 31 -3 1 -14 1 -36 0 -33 -1 -36 -1 -37 4 -1 1 -1 38 -1 81 0 78 1 79 3 83 3 6 5 6 26 7 11 0 20 0 20 1 1 1 131 -1 160 -2z m3206 0 c37 0 37 0 42 -3 3 -2 8 -3 10 -4 6 -1 12 -4 18 -9 4 -3 8 -6 11 -7 2 -1 5 -3 6 -5 1 -1 3 -4 5 -6 3 -3 4 -5 5 -10 1 -4 3 -10 4 -14 5 -9 7 -19 9 -34 1 -8 1 -127 1 -444 0 -433 0 -433 2 -438 3 -6 7 -11 11 -13 1 0 6 -2 12 -3 9 -2 14 -2 29 -2 37 0 41 0 43 -2 1 -1 1 -8 1 -84 0 -82 0 -82 -3 -85 -2 -2 -5 -3 -12 0 -3 1 -5 1 -9 0 -3 -1 -29 -1 -93 -1 -83 0 -89 0 -102 2 -8 1 -17 2 -19 2 -3 0 -7 1 -15 6 -6 3 -12 6 -13 7 -2 1 -5 3 -8 5 -5 4 -11 10 -14 15 -1 1 -3 4 -5 7 -2 2 -4 5 -4 6 0 1 -2 8 -4 16 -3 14 -3 14 -4 452 0 439 0 439 -3 446 -1 4 -2 10 -3 12 -1 3 -2 6 -3 7 -3 4 -14 5 -39 6 -14 0 -25 1 -26 1 0 1 -4 0 -9 0 -7 -1 -8 -1 -12 1 -3 1 -5 3 -6 5 -1 3 -1 156 0 161 2 6 5 7 20 8 14 1 126 0 177 -1z m-4446 -3 c14 -3 20 -4 29 -9 4 -2 11 -5 15 -6 6 -3 7 -4 10 -8 3 -4 4 -5 9 -6 6 -2 6 -2 15 -19 13 -22 18 -33 19 -42 1 -7 1 -24 -1 -36 -2 -15 -5 -28 -6 -30 -1 -1 -3 -4 -4 -7 -2 -4 -5 -9 -9 -13 -4 -3 -9 -9 -11 -13 -7 -10 -12 -14 -20 -16 -4 -2 -11 -5 -16 -9 -7 -5 -9 -5 -16 -6 -15 -2 -36 -2 -47 -1 -13 1 -13 1 -28 9 -3 2 -8 4 -11 5 -8 4 -25 21 -35 36 -4 6 -9 12 -10 14 -2 2 -3 5 -4 7 0 2 -1 8 -2 14 -2 12 -2 22 -1 39 1 10 2 12 5 20 2 5 4 9 4 10 0 4 6 14 11 21 5 5 7 8 7 10 0 2 4 6 9 9 7 5 13 9 15 11 2 2 5 3 8 4 3 1 11 3 18 6 11 4 18 6 27 7 4 1 7 1 20 -1z m6199 -79 c1 -2 4 -4 6 -5 2 -1 8 -5 13 -9 6 -4 12 -8 13 -9 2 -1 7 -4 11 -7 4 -3 9 -7 12 -9 2 -1 7 -5 11 -9 16 -14 20 -18 28 -24 5 -4 10 -9 14 -14 3 -4 8 -9 12 -12 3 -3 7 -6 8 -8 5 -7 8 -10 16 -19 12 -12 18 -20 22 -25 1 -3 5 -9 9 -13 4 -5 8 -10 9 -13 1 -2 5 -8 9 -12 3 -5 7 -10 8 -12 1 -2 3 -5 4 -6 6 -3 4 -9 -5 -12 -3 -1 -7 -3 -8 -4 -2 -1 -6 -2 -11 -3 -5 -1 -15 -3 -22 -6 -8 -2 -17 -4 -21 -5 -4 -1 -10 -2 -13 -3 -3 -1 -7 -2 -9 -2 -2 0 -7 -2 -13 -4 -22 -8 -37 -11 -43 -8 -1 1 -5 4 -7 7 -3 4 -7 8 -9 11 -3 2 -7 7 -9 10 -2 3 -6 9 -10 14 -4 4 -8 9 -9 11 -2 2 -5 5 -8 7 -2 1 -8 6 -12 10 -4 3 -10 8 -12 10 -3 2 -8 6 -12 10 -3 3 -9 8 -12 10 -4 3 -7 6 -7 7 -1 2 4 26 8 44 2 5 3 11 4 14 0 2 1 7 3 9 1 3 2 7 2 8 0 3 5 21 7 28 1 2 3 8 3 13 1 4 4 13 5 18 5 15 9 18 15 12z m-6200 -246 c35 -1 50 -3 56 -7 1 -1 4 -2 5 -2 4 -2 14 -8 17 -10 1 -1 4 -3 6 -4 6 -3 9 -6 11 -12 0 -3 3 -10 6 -14 3 -6 6 -13 8 -20 2 -10 2 -11 3 -51 1 -22 1 -145 1 -273 0 -153 0 -234 1 -238 1 -7 6 -20 8 -23 1 -3 4 -3 15 -6 7 -2 16 -2 37 -3 14 -1 29 -1 32 -1 4 0 6 -1 7 -2 2 -2 2 -3 2 -83 0 -63 -1 -81 -2 -83 -1 -2 -4 -3 -7 -1 -2 1 -4 1 -10 -1 -7 -1 -16 -1 -105 -1 -107 1 -104 1 -122 6 -9 3 -16 7 -19 10 -1 1 -6 4 -10 6 -9 5 -11 7 -12 13 -1 3 -2 5 -4 7 -3 3 -4 5 -5 10 -1 3 -3 11 -5 17 -2 6 -4 15 -5 19 -1 5 -1 83 -1 278 0 270 0 270 -3 276 -4 6 -12 14 -17 17 -4 2 -6 3 -36 3 -23 0 -33 0 -35 1 -3 2 -4 6 -3 11 1 3 1 5 -1 10 -2 10 -1 123 1 128 1 2 1 3 0 7 -1 2 -2 5 -2 7 0 4 4 8 8 9 4 1 128 0 180 0z"/>
    <path d="M3729 1006 c-13 -1 -15 -1 -16 -4 -1 -2 -1 -391 0 -393 0 -1 1 -2 2 -3 2 -1 157 -1 175 0 33 2 40 3 52 6 6 2 14 5 18 5 6 2 13 4 24 9 3 1 7 4 9 6 3 2 7 5 10 7 2 1 8 5 12 9 4 4 10 9 12 11 3 2 5 4 6 7 0 2 4 7 9 12 6 7 8 10 10 16 2 4 4 7 5 8 0 1 2 4 3 7 2 10 7 24 8 24 1 1 4 12 6 24 0 6 2 24 2 41 2 37 1 48 -5 69 -2 8 -4 18 -5 21 0 4 -2 8 -3 10 -1 1 -3 5 -4 8 -2 2 -4 7 -6 10 -2 3 -4 6 -4 6 0 4 -7 16 -11 19 -2 2 -5 6 -6 9 -3 6 -4 7 -10 10 -3 1 -7 4 -9 7 -2 2 -7 6 -11 8 -4 2 -11 6 -14 8 -4 3 -10 6 -13 7 -3 1 -6 3 -8 4 -2 1 -7 3 -15 5 -7 1 -15 3 -19 3 -4 1 -12 2 -18 3 -12 1 -165 2 -186 1z"/>
    <path d="M1602 717 c-16 -1 -30 -4 -45 -9 -2 -1 -8 -2 -11 -3 -6 -1 -7 -2 -10 -5 -2 -2 -5 -4 -6 -4 -4 0 -9 -3 -15 -8 -6 -5 -10 -7 -18 -10 -2 -1 -6 -4 -9 -8 -4 -3 -7 -6 -8 -6 -3 0 -8 -6 -11 -13 -2 -6 -3 -7 -6 -9 -3 -2 -5 -4 -7 -7 -1 -3 -4 -8 -7 -11 -5 -6 -7 -10 -11 -19 -1 -4 -5 -12 -8 -19 -7 -13 -9 -19 -9 -28 0 -7 1 -9 5 -12 3 -1 15 -1 164 -1 112 0 162 0 166 -1 12 -2 27 2 28 7 2 4 1 16 -1 24 -1 5 -2 11 -3 15 -1 9 -6 22 -10 30 -2 3 -5 9 -6 12 -2 3 -4 7 -5 9 -1 1 -3 4 -4 7 -1 2 -7 9 -12 16 -6 6 -12 14 -14 16 -2 3 -5 6 -7 7 -1 0 -4 2 -6 2 -2 1 -6 4 -9 7 -3 3 -8 6 -11 7 -14 5 -20 7 -21 7 -1 0 -4 1 -7 2 -7 3 -29 6 -41 6 -5 0 -17 -1 -25 -1z"/>
    <path d="M6784 716 c-25 -2 -58 -8 -66 -12 -3 -2 -6 -3 -7 -3 -2 0 -29 -14 -33 -17 -2 -1 -6 -5 -10 -7 -9 -6 -26 -24 -29 -29 -1 -3 -3 -5 -5 -6 -2 -2 -5 -6 -7 -9 -2 -4 -6 -9 -7 -11 -2 -2 -5 -8 -7 -13 -3 -5 -6 -12 -8 -15 -1 -4 -3 -9 -4 -11 -1 -2 -2 -6 -3 -7 -1 -1 -2 -5 -3 -8 0 -3 -1 -8 -2 -10 -2 -6 0 -11 3 -13 2 -1 36 -1 178 -1 168 0 175 0 177 2 4 3 6 8 6 17 0 6 0 9 -2 12 -1 2 -3 7 -3 12 -1 9 -3 15 -9 28 -3 5 -5 13 -6 16 -2 6 -3 7 -5 9 -2 1 -4 5 -6 8 -1 3 -5 8 -7 12 -3 3 -6 7 -7 8 -1 2 -4 4 -7 6 -3 1 -8 5 -10 8 -3 4 -6 6 -12 9 -5 2 -11 6 -13 8 -5 4 -10 6 -15 6 -2 0 -6 1 -8 4 -1 1 -7 3 -13 4 -10 3 -14 3 -28 4 -10 0 -20 0 -22 -1z"/>
    <path d="M2841 699 c-1 -1 -6 -1 -12 -2 -13 -2 -25 -5 -37 -10 -5 -2 -12 -5 -14 -6 -3 -1 -7 -3 -9 -5 -3 -2 -7 -5 -9 -6 -2 -1 -7 -4 -9 -6 -2 -2 -7 -5 -9 -6 -3 -1 -7 -4 -11 -8 -3 -4 -7 -8 -9 -10 -2 -1 -5 -4 -6 -6 -1 -2 -5 -7 -8 -10 -2 -3 -7 -9 -10 -13 -2 -4 -6 -9 -7 -11 -1 -3 -4 -8 -5 -12 -1 -5 -3 -7 -5 -10 -3 -2 -4 -5 -5 -9 -1 -5 -3 -11 -9 -24 -2 -4 -4 -12 -5 -19 -1 -6 -3 -12 -4 -14 -1 -4 -2 -7 -2 -18 -1 -8 -2 -23 -3 -34 -1 -20 -1 -24 1 -57 1 -26 4 -46 8 -53 1 -2 3 -10 4 -19 1 -5 3 -11 4 -13 1 -3 3 -9 4 -13 1 -4 4 -9 7 -13 2 -3 5 -8 6 -10 0 -3 2 -7 4 -9 3 -5 13 -22 13 -23 0 0 7 -8 21 -21 16 -17 20 -20 29 -25 6 -3 12 -6 14 -8 2 -2 7 -4 9 -5 3 0 10 -3 15 -6 21 -11 53 -13 99 -8 9 1 20 3 23 4 11 4 19 6 21 6 2 0 5 1 7 2 2 1 7 3 9 4 3 0 6 2 7 4 1 1 6 4 9 6 4 3 10 6 12 9 3 2 7 6 11 9 7 5 21 18 25 25 2 3 6 7 8 9 4 3 5 5 7 9 0 3 3 7 5 10 4 6 13 25 16 35 2 4 4 9 6 11 1 3 3 8 4 14 0 5 2 15 3 22 2 6 3 14 4 18 1 4 2 9 3 12 1 5 1 12 1 50 0 32 0 45 -1 50 -1 4 -2 11 -2 16 -1 5 -2 9 -3 10 0 1 -1 6 -2 11 -1 5 -4 14 -6 21 -7 17 -9 23 -9 26 0 1 -1 5 -3 7 -1 3 -3 7 -4 9 -3 9 -16 29 -24 38 -3 2 -6 7 -8 10 -1 4 -3 6 -5 7 -1 1 -8 6 -14 11 -6 6 -15 13 -19 16 -5 3 -11 7 -12 8 -6 5 -17 10 -26 12 -5 1 -12 3 -16 5 -7 2 -11 3 -20 4 -12 1 -54 2 -57 2z"/>
  </g>
</svg>